<mxfile host="Electron" modified="2024-10-18T15:32:32.217Z" agent="Mozilla/5.0 (Windows NT 10.0; Win64; x64) AppleWebKit/537.36 (KHTML, like Gecko) draw.io/21.6.8 Chrome/114.0.5735.289 Electron/25.5.0 Safari/537.36" etag="nK2pRdr3D_XWllSPtmyY" version="21.6.8" type="device">
  <diagram id="C5RBs43oDa-KdzZeNtuy" name="Page-1">
    <mxGraphModel dx="1301" dy="844" grid="1" gridSize="10" guides="1" tooltips="1" connect="1" arrows="1" fold="1" page="1" pageScale="1" pageWidth="827" pageHeight="1169" math="0" shadow="0">
      <root>
        <mxCell id="WIyWlLk6GJQsqaUBKTNV-0" />
        <mxCell id="WIyWlLk6GJQsqaUBKTNV-1" parent="WIyWlLk6GJQsqaUBKTNV-0" />
        <mxCell id="j5bObb8jWMPXvBy-FIoC-12" style="edgeStyle=orthogonalEdgeStyle;rounded=0;orthogonalLoop=1;jettySize=auto;html=1;exitX=0.5;exitY=1;exitDx=0;exitDy=0;entryX=0.5;entryY=0;entryDx=0;entryDy=0;" edge="1" parent="WIyWlLk6GJQsqaUBKTNV-1" source="j5bObb8jWMPXvBy-FIoC-4" target="j5bObb8jWMPXvBy-FIoC-6">
          <mxGeometry relative="1" as="geometry" />
        </mxCell>
        <mxCell id="j5bObb8jWMPXvBy-FIoC-4" value="" style="rounded=0;whiteSpace=wrap;html=1;fillColor=#dae8fc;strokeColor=#6c8ebf;" vertex="1" parent="WIyWlLk6GJQsqaUBKTNV-1">
          <mxGeometry x="-476" y="280" width="126" height="120" as="geometry" />
        </mxCell>
        <mxCell id="j5bObb8jWMPXvBy-FIoC-11" style="edgeStyle=orthogonalEdgeStyle;rounded=0;orthogonalLoop=1;jettySize=auto;html=1;exitX=0.5;exitY=1;exitDx=0;exitDy=0;entryX=0.5;entryY=0;entryDx=0;entryDy=0;" edge="1" parent="WIyWlLk6GJQsqaUBKTNV-1" source="j5bObb8jWMPXvBy-FIoC-2" target="j5bObb8jWMPXvBy-FIoC-4">
          <mxGeometry relative="1" as="geometry" />
        </mxCell>
        <mxCell id="j5bObb8jWMPXvBy-FIoC-2" value="" style="shape=parallelogram;perimeter=parallelogramPerimeter;whiteSpace=wrap;html=1;fixedSize=1;fillColor=#fff2cc;strokeColor=#d6b656;" vertex="1" parent="WIyWlLk6GJQsqaUBKTNV-1">
          <mxGeometry x="-496" y="160" width="166" height="80" as="geometry" />
        </mxCell>
        <mxCell id="j5bObb8jWMPXvBy-FIoC-10" style="edgeStyle=orthogonalEdgeStyle;rounded=0;orthogonalLoop=1;jettySize=auto;html=1;exitX=0.5;exitY=1;exitDx=0;exitDy=0;entryX=0.5;entryY=0;entryDx=0;entryDy=0;" edge="1" parent="WIyWlLk6GJQsqaUBKTNV-1" source="j5bObb8jWMPXvBy-FIoC-0" target="j5bObb8jWMPXvBy-FIoC-2">
          <mxGeometry relative="1" as="geometry" />
        </mxCell>
        <mxCell id="j5bObb8jWMPXvBy-FIoC-0" value="" style="ellipse;whiteSpace=wrap;html=1;aspect=fixed;" vertex="1" parent="WIyWlLk6GJQsqaUBKTNV-1">
          <mxGeometry x="-453" y="40" width="80" height="80" as="geometry" />
        </mxCell>
        <mxCell id="j5bObb8jWMPXvBy-FIoC-1" value="Inicio" style="text;html=1;strokeColor=none;fillColor=none;align=center;verticalAlign=middle;whiteSpace=wrap;rounded=0;" vertex="1" parent="WIyWlLk6GJQsqaUBKTNV-1">
          <mxGeometry x="-443" y="65" width="60" height="30" as="geometry" />
        </mxCell>
        <mxCell id="j5bObb8jWMPXvBy-FIoC-3" value="&amp;nbsp;Mostrar mensaje: &quot;Por favor, ingrese una palabra: &quot;" style="text;html=1;strokeColor=none;fillColor=none;align=center;verticalAlign=middle;whiteSpace=wrap;rounded=0;" vertex="1" parent="WIyWlLk6GJQsqaUBKTNV-1">
          <mxGeometry x="-466" y="185" width="106" height="30" as="geometry" />
        </mxCell>
        <mxCell id="j5bObb8jWMPXvBy-FIoC-5" value="&lt;div&gt;&amp;nbsp; &amp;nbsp; Definir la variable cantidad_letras y asignarle la longitud de palabra_ingresada&lt;/div&gt;&lt;div&gt;&lt;br&gt;&lt;/div&gt;" style="text;html=1;strokeColor=none;fillColor=none;align=center;verticalAlign=middle;whiteSpace=wrap;rounded=0;" vertex="1" parent="WIyWlLk6GJQsqaUBKTNV-1">
          <mxGeometry x="-471" y="300" width="116" height="80" as="geometry" />
        </mxCell>
        <mxCell id="j5bObb8jWMPXvBy-FIoC-13" style="edgeStyle=orthogonalEdgeStyle;rounded=0;orthogonalLoop=1;jettySize=auto;html=1;exitX=0.5;exitY=1;exitDx=0;exitDy=0;entryX=0.5;entryY=0;entryDx=0;entryDy=0;" edge="1" parent="WIyWlLk6GJQsqaUBKTNV-1" source="j5bObb8jWMPXvBy-FIoC-6" target="j5bObb8jWMPXvBy-FIoC-8">
          <mxGeometry relative="1" as="geometry" />
        </mxCell>
        <mxCell id="j5bObb8jWMPXvBy-FIoC-6" value="" style="shape=parallelogram;perimeter=parallelogramPerimeter;whiteSpace=wrap;html=1;fixedSize=1;fillColor=#ffe6cc;strokeColor=#d79b00;" vertex="1" parent="WIyWlLk6GJQsqaUBKTNV-1">
          <mxGeometry x="-496" y="440" width="166" height="80" as="geometry" />
        </mxCell>
        <mxCell id="j5bObb8jWMPXvBy-FIoC-7" value="&lt;div&gt;&amp;nbsp; &amp;nbsp; Mostrar mensaje: &quot;La palabra ingresada tiene &quot;, cantidad_letras, letras.&quot;&lt;/div&gt;&lt;div&gt;&lt;br&gt;&lt;/div&gt;" style="text;html=1;strokeColor=none;fillColor=none;align=center;verticalAlign=middle;whiteSpace=wrap;rounded=0;" vertex="1" parent="WIyWlLk6GJQsqaUBKTNV-1">
          <mxGeometry x="-486" y="465" width="146" height="30" as="geometry" />
        </mxCell>
        <mxCell id="j5bObb8jWMPXvBy-FIoC-8" value="" style="ellipse;whiteSpace=wrap;html=1;aspect=fixed;" vertex="1" parent="WIyWlLk6GJQsqaUBKTNV-1">
          <mxGeometry x="-453" y="560" width="80" height="80" as="geometry" />
        </mxCell>
        <mxCell id="j5bObb8jWMPXvBy-FIoC-9" value="Fin" style="text;html=1;strokeColor=none;fillColor=none;align=center;verticalAlign=middle;whiteSpace=wrap;rounded=0;" vertex="1" parent="WIyWlLk6GJQsqaUBKTNV-1">
          <mxGeometry x="-443" y="585" width="60" height="30" as="geometry" />
        </mxCell>
      </root>
    </mxGraphModel>
  </diagram>
</mxfile>
